<svg xmlns="http://www.w3.org/2000/svg" xmlns:xlink="http://www.w3.org/1999/xlink" id="visual" viewBox="0 0 960 540" width="960" height="540" version="1.1"><path d="M0 427L20 418.3C40 409.7 80 392.3 120 393.7C160 395 200 415 240 415.3C280 415.7 320 396.3 360 394.5C400 392.7 440 408.3 480 417.5C520 426.7 560 429.3 600 424.2C640 419 680 406 720 400.3C760 394.7 800 396.3 840 400.2C880 404 920 410 940 413L960 416L960 541L940 541C920 541 880 541 840 541C800 541 760 541 720 541C680 541 640 541 600 541C560 541 520 541 480 541C440 541 400 541 360 541C320 541 280 541 240 541C200 541 160 541 120 541C80 541 40 541 20 541L0 541Z" fill="#715df2"/><path d="M0 423L20 421.2C40 419.3 80 415.7 120 415.8C160 416 200 420 240 426.7C280 433.3 320 442.7 360 446C400 449.3 440 446.7 480 444.8C520 443 560 442 600 437.8C640 433.7 680 426.3 720 431.3C760 436.3 800 453.7 840 456.2C880 458.7 920 446.3 940 440.2L960 434L960 541L940 541C920 541 880 541 840 541C800 541 760 541 720 541C680 541 640 541 600 541C560 541 520 541 480 541C440 541 400 541 360 541C320 541 280 541 240 541C200 541 160 541 120 541C80 541 40 541 20 541L0 541Z" fill="#4859e0"/><path d="M0 462L20 465.8C40 469.7 80 477.3 120 483C160 488.7 200 492.3 240 491.3C280 490.3 320 484.7 360 480C400 475.3 440 471.7 480 469.3C520 467 560 466 600 464.5C640 463 680 461 720 462.3C760 463.7 800 468.3 840 476.5C880 484.7 920 496.3 940 502.2L960 508L960 541L940 541C920 541 880 541 840 541C800 541 760 541 720 541C680 541 640 541 600 541C560 541 520 541 480 541C440 541 400 541 360 541C320 541 280 541 240 541C200 541 160 541 120 541C80 541 40 541 20 541L0 541Z" fill="#0353cc"/></svg>